<?xml version="1.0" encoding="UTF-8" standalone="no"?>
<svg id="svg2" xmlns:rdf="http://www.w3.org/1999/02/22-rdf-syntax-ns#" xmlns="http://www.w3.org/2000/svg" xml:space="preserve" height="82.881" width="510" version="1.1" xmlns:cc="http://creativecommons.org/ns#" xmlns:dc="http://purl.org/dc/elements/1.1/" viewBox="0 0 510 82.880989"><metadata id="metadata8"><rdf:RDF><cc:Work rdf:about=""><dc:format>image/svg+xml</dc:format><dc:type rdf:resource="http://purl.org/dc/dcmitype/StillImage"/><dc:title/></cc:Work></rdf:RDF></metadata><g id="g10" transform="matrix(7.8393 0 0 -7.8393 5 85.729)"><g id="g12" fill="#6485c1" transform="scale(.1)"><path id="path14" d="m96.719 102.01v-19.184h29.179v-71.797h20.661v71.797h29.179v19.184z"/><path id="path16" d="m436.84 102.01h-52.039v-19.34h50.629c7.461 0 10.351-3.4024 10.351-12.07v-3.2422h-41.992c-15.98 0-23.91-7.9688-23.91-26.02v-4.3007c0-18.551 8.242-26.008 24.812-26.008h61.559v59.797c0 22.891-7.578 31.184-29.41 31.184m-30-71.532c-3.129 0-6.641 1.5586-6.641 9.3789 0 7.8125 3.43 9.1797 6.641 9.1797h38.941v-18.559z"/><path id="path18" d="m608.4 102.01h-52.027v-19.34h50.66c7.418 0 10.309-3.4024 10.309-12.07v-3.2422h-41.949c-15.981 0-23.942-7.9688-23.942-26.02v-4.3007c0-18.551 8.242-26.008 24.801-26.008h61.559v59.797c0 22.891-7.579 31.184-29.411 31.184m-30-71.532c-3.128 0-6.636 1.5586-6.636 9.3789 0 7.8125 3.437 9.1797 6.636 9.1797h38.942v-18.559z"/><path id="path20" d="m182.3 102.01v-19.184h29.179v-71.797h20.711v71.797h29.18v19.184z"/><path id="path22" d="m470.39 102.01v-19.184h29.179v-71.797h20.66v71.797h29.18v19.184z"/><path id="path24" d="m371.88 42.898v27.23c0 23.793-9.219 31.84-30.078 31.84h-55.352v-90.938h56.321c22.109 0 29.109 11.008 29.109 31.867m-21.098-0.4296c0-8.668-2.929-12.07-10.351-12.07h-33.282v52.23h33.282c7.422 0 10.351-3.3984 10.351-12.148z"/><path id="path26" d="m67.539 32.711c-0.43 0.82-28.008 54.609-31.41 59.918-3.899 6.09-8.629 10.351-17.688 10.351-8.441 0-18.441-3.71-18.441-23.98v-68.012h20.352v56.723c0 4.0586-0.2305 10.117-0.2735 11.328-0.039 1.0117 0 1.9492 0.5117 2.2226 0.5391 0.3594 1.129-0.1914 1.5586-0.9336 0.3907-0.789 25.973-51.406 31.441-59.957 3.8711-6.1406 8.6407-10.359 17.699-10.359 8.4414 0 18.402 3.75 18.402 23.988v68.012h-20.352v-56.723c0-4.0977 0.2305-10.117 0.3086-11.328 0-0.9804 0-1.9492-0.5078-2.2304-0.5898-0.3516-1.1718 0.1992-1.6015 0.9804"/></g></g></svg>
